# AST/ASF file generated using VICON BodyLanguage
# -----------------------------------------------
:version 1.10
:name VICON
:units
  mass 1.0
  length 0.1
  angle deg
:documentation
   .ast/.asf automatically generated from VICON data using
   VICON BodyBuilder and BodyLanguage model FULLBODY5.MOD
:root
   order TX TY TZ RZ RY RX
   axis XYZ
   position 0 0 0  
   orientation 0 -0 0 
:bonedata
  begin
     id 1 
     name lhipjoint
     direction 0.969109 -0.218487 0.11442 
     length 0.544217 
     axis 0 -0 0  XYZ
  end
  begin
     id 2 
     name lfemur
     direction 0.173648 -0.984808 0  
     length 1.81499  
     axis 0 -0 10  XYZ
    dof rx ry rz
    limits (-180.0 180.0)
           (-180.0 180.0)
           (-180.0 180.0)
  end
  begin
     id 3 
     name ltibia
     direction 0.173515 -0.984831 0   
     length 1.55296   
     axis 0 -0 10   XYZ
    dof rx ry rz
    limits (-180.0 180.0)
           (-180.0 180.0)
           (-180.0 180.0)
  end
  begin
     id 4 
     name lfoot
     direction 7.36097e-012 -0.333012 0.942922   
     length 0.509062   
     axis -90 -1.73656e-015 10   XYZ
    dof rx ry rz
    limits (-180.0 180.0)
           (-180.0 180.0)
           (-180.0 180.0)
  end
  begin
     id 5 
     name ltoes
     direction 7.7847e-012 -4.42403e-011 1   
     length 0.249732   
     axis -90 -1.73656e-015 10   XYZ
    dof rx ry rz
    limits (-180.0 180.0)
           (-180.0 180.0)
           (-180.0 180.0)
  end
  begin
     id 6 
     name rhipjoint
     direction -0.966745 -0.226554 0.118645   
     length 0.524838  
     axis 0 -0 0  XYZ 
  end
  begin
     id 7 
     name rfemur
     direction -0.173648 -0.984808 0   
     length 1.84625   
     axis 0 -0 -10   XYZ
    dof rx ry rz
    limits (-180.0 180.0)
           (-180.0 180.0)
           (-180.0 180.0)
  end
  begin
     id 8 
     name rtibia
     direction -0.173714 -0.984796 0   
     length 1.577   
     axis 0 -0 -10   XYZ
    dof rx ry rz
    limits (-180.0 180.0)
           (-180.0 180.0)
           (-180.0 180.0)
 end
 begin
     id 9 
     name rfoot
     direction -0.0183819 -0.0406144 0.999006   
     length 0.490111  
     axis -90 1.73656e-015 -10   XYZ
    dof rx ry rz
    limits (-180.0 180.0)
           (-180.0 180.0)
           (-180.0 180.0)
  end
  begin
     id 10 
     name rtoes
     direction -7.79087e-012 -4.42375e-011 1   
     length 0.245053   
     axis -90 1.73656e-015 -10   XYZ
    dof rx ry rz
    limits (-180.0 180.0)
           (-180.0 180.0)
           (-180.0 180.0)
  end
  begin
     id 11 
     name lowerback
     direction -0.0664844 0.980601 0.184393   
     length 0.458979   
     axis 0 -0 0   XYZ
    dof rx ry rz
    limits (-180.0 180.0)
           (-180.0 180.0)
           (-180.0 180.0)
  end
  begin
     id 12 
     name upperback
     direction 0.0135995 0.999573 0.02588   
     length 0.463983   
     axis 0 -0 0   XYZ
    dof rx ry rz
    limits (-180.0 180.0)
           (-180.0 180.0)
           (-180.0 180.0)
  end
  begin
     id 13 
     name thorax
     direction 0.0468402 0.997311 -0.0563691   
     length 0.482746   
     axis 0 -0 0   XYZ
    dof rx ry rz
    limits (-180.0 180.0)
           (-180.0 180.0)
           (-180.0 180.0)
  end
  begin
     id 14 
     name lowerneck
     direction -0.00174311 0.988586 -0.150647   
     length 0.364383   
     axis 0 -0 0   XYZ
    dof rx ry rz
    limits (-180.0 180.0)
           (-180.0 180.0)
           (-180.0 180.0)
  end
  begin
     id 15 
     name upperneck
     direction -0.02653 0.999379 -0.0231908   
     length 0.361006   
     axis 0 -0 0   XYZ
    dof rx ry rz
    limits (-180.0 180.0)
           (-180.0 180.0)
           (-180.0 180.0)
  end
  begin
     id 16
     name head
     direction -0.00819207 0.999941 0.00714285  
     length 0.378714  
     axis 0 -0 0   XYZ
    dof rx ry rz
    limits (-180.0 180.0)
           (-180.0 180.0)
           (-180.0 180.0)
  end
  begin
     id 17 
     name lshoulderjoint
     direction 0.981627 -0.190809 0  
     length 0.612969  
     axis 0 -0 -11   XYZ
    dof rx ry rz
    limits (-180.0 180.0)
           (-180.0 180.0)
           (-180.0 180.0)
  end
  begin
     id 18 
     name lhumerus
     direction 0.48481 -0.87462 -9.72962e-027   
     length 1.19637   
     axis -180 5.14477e-009 -151   XYZ
    dof rx ry rz
    limits (-180.0 180.0)
           (-180.0 180.0)
           (-180.0 180.0)
  end
  begin
     id 19
     name lradius
     direction 0.48481 -0.87462 -2.35761e-026   
     length 0.637735   
     axis -180 5.14477e-009 -151   XYZ
    dof rx ry rz
    limits (-180.0 180.0)
           (-180.0 180.0)
           (-180.0 180.0)
  end
  begin
     id 20
     name lwrist
     direction 0.48481 -0.87462 -5.51856e-026   
     length 0.318868   
     axis -180 5.14477e-009 -151   XYZ
    dof rx ry rz
    limits (-180.0 180.0)
           (-180.0 180.0)
           (-180.0 180.0)
  end
  begin
     id 21 
     name lhand
     direction 0.477747 -0.861928 -0.169816   
     length 0.29526   
     axis -180 5.14477e-009 -151   XYZ
    dof rx ry rz
    limits (-180.0 180.0)
           (-180.0 180.0)
           (-180.0 180.0)
  end
  begin
     id 22 
     name rshoulderjoint
     direction -0.981627 -0.190809 0   
     length 0.572347  
     axis 0 -0 11   XYZ 
    dof rx ry rz
    limits (-180.0 180.0)
           (-180.0 180.0)
           (-180.0 180.0)
  end
  begin
     id 23 
     name rhumerus
     direction -0.48481 -0.87462 1.64836e-026  
     length 1.28846   
     axis 180 5.14477e-009 151   XYZ
    dof rx ry rz
    limits (-180.0 180.0)
           (-180.0 180.0)
           (-180.0 180.0)
  end
  begin
     id 24 
     name rradius
     direction -0.48481 -0.87462 2.86827e-026   
     length 0.62107   
     axis 180 5.14477e-009 151   XYZ
    dof rx ry rz
    limits (-180.0 180.0)
           (-180.0 180.0)
           (-180.0 180.0)
  end
  begin
     id 25 
     name rwrist
     direction -0.48481 -0.87462 5.20942e-026   
     length 0.310535   
     axis 180 5.14477e-009 151   XYZ
    dof rx ry rz
    limits (-180.0 180.0)
           (-180.0 180.0)
           (-180.0 180.0)
  end
  begin
     id 26
     name rhand
     direction -0.477664 -0.861515 -0.172133   
     length 0.291321   
     axis 180 5.14477e-009 151   XYZ
    dof rx ry rz
    limits (-180.0 180.0)
           (-180.0 180.0)
           (-180.0 180.0)
  end
:hierarchy
  begin
    root lhipjoint rhipjoint lowerback 
    lhipjoint lfemur
    lfemur ltibia
    ltibia lfoot
    lfoot ltoes
    rhipjoint rfemur
    rfemur rtibia
    rtibia rfoot
    rfoot rtoes
    lowerback upperback
    upperback thorax
    thorax lowerneck lshoulderjoint rshoulderjoint
    lowerneck upperneck
    upperneck head
    lshoulderjoint lhumerus
    lhumerus lradius
    lradius lwrist
    lwrist lhand
    rshoulderjoint rhumerus
    rhumerus rradius
    rradius rwrist
    rwrist rhand
  end

:FULLY-SPECIFIED
:DEGREES
98
root 0.734483 3.70424 -0.418378 114.746 -71.7499 110.581
lowerback -22.4617 0.588224 -10.0147
upperback -6.14832 2.5433 -0.526373
thorax 5.27524 0.997294 5.78021
lowerneck 15.5376 -3.18552 0.409027
upperneck 6.52798 -4.52269 -3.18399
head -0.6043 -2.36229 -0.836662
rshoulderjoint 0.624404 -1.1033 -40.5099
rhumerus 170.875 -56.16 -172.143
rradius 34.6043 3.81667e-014 6.20208e-014
rwrist -2.66497e-013 -4.76401 3.8299e-014
rhand 11.1146 4.44231 -18.1728
lshoulderjoint -0.32391 -0.561602 40.9753
lhumerus 178.476 78.2512 190.534
lradius 36.109 1.08139e-013 1.07344e-013
lwrist -5.02429e-014 -4.41565 3.74828e-014
lhand 23.985 4.37399 -8.14011
rfemur -21.4873 8.04326 7.44579
rtibia 56.5133 4.17448e-015 -4.77083e-015
rfoot -180.984 -37.5605 167.457
rtoes -1.36764e-013 2.09917e-013 1.33583e-013
lfemur -20.0612 -2.95634 -17.8044
ltibia 5.24792e-014 1.43125e-014 -4.77083e-015
lfoot 1.14333 7.72181 11.0605
ltoes -1.75129e-013 1.03679e-013 6.59965e-014
99
root 0.74851 3.70298 -0.41967 114.857 -71.7075 110.673
lowerback -22.6029 0.617849 -9.97623
upperback -6.19325 2.58105 -0.549141
thorax 5.29481 1.0131 5.74705
lowerneck 15.6353 -3.17643 0.399191
upperneck 6.57028 -4.51622 -3.20009
head -0.606597 -2.36069 -0.839385
rshoulderjoint 0.575195 -1.01484 -40.5461
rhumerus 171.114 -56.1165 -172.414
rradius 34.592 -4.96167e-013 -1.89243e-013
rwrist 4.27689e-013 -4.79186 2.89648e-013
rhand 11.1025 4.55478 -18.2193
lshoulderjoint -0.34259 -0.593706 40.9872
lhumerus 179.258 78.3299 191.376
lradius 36.1018 2.98972e-013 3.20441e-013
lwrist -1.91425e-013 -4.5059 1.51545e-013
lhand 23.8508 4.46165 -8.28355
rfemur -20.965 8.20688 7.43883
rtibia 56.0441 -5.36719e-015 -1.15295e-014
rfoot -181.183 -37.3136 168.06
rtoes -2.3218e-013 1.24042e-013 2.29e-013
lfemur -20.2965 -2.89793 -17.75
ltibia 5.60573e-014 1.11319e-014 -1.98785e-014
lfoot 1.21858 8.35655 11.0919
ltoes -1.9799e-013 1.82633e-013 1.11319e-014
100
root 0.762988 3.70175 -0.421165 114.804 -71.6621 110.578
lowerback -22.7676 0.632019 -9.96623
upperback -6.21734 2.61077 -0.577032
thorax 5.34936 1.02269 5.72401
lowerneck 15.6553 -3.17036 0.385724
upperneck 6.60493 -4.51158 -3.21279
head -0.598483 -2.35954 -0.84141
rshoulderjoint 0.582543 -1.0289 -40.5198
rhumerus 171.169 -56.0929 -172.464
rradius 34.5917 -2.76708e-013 -8.11041e-014
rwrist -6.00041e-013 -4.79104 1.30062e-013
rhand 11.0923 4.58174 -18.2317
lshoulderjoint -0.329885 -0.571966 40.9752
lhumerus 179.443 78.4128 191.638
lradius 36.0964 2.06736e-013 -1.94014e-013
lwrist 2.91158e-014 -4.58678 -5.53599e-013
lhand 23.7429 4.54107 -8.42036
rfemur -20.4621 8.36912 7.39786
rtibia 55.4901 -2.06736e-014 -2.78299e-015
rfoot -181.31 -37.7531 168.716
rtoes -6.36111e-014 -3.14875e-013 -1.05753e-013
lfemur -20.5677 -2.89424 -17.7074
ltibia -1.19271e-015 7.95139e-015 1.98785e-014
lfoot 1.30935 8.69139 11.0907
ltoes -6.16232e-014 -1.94809e-013 -1.28017e-013
101
root 0.777901 3.70035 -0.423059 114.838 -71.6411 110.583
lowerback -22.894 0.650076 -9.96138
upperback -6.22624 2.64451 -0.59096
thorax 5.39942 1.03495 5.71926
lowerneck 15.6512 -3.16056 0.332167
upperneck 6.66356 -4.50853 -3.20437
head -0.576865 -2.36106 -0.830562
rshoulderjoint 0.602605 -1.06506 -40.5034
rhumerus 171.137 -56.1352 -172.457
rradius 34.5856 -2.00375e-013 -1.30403e-013
rwrist -3.35133e-013 -4.79951 -1.83525e-014
rhand 11.113 4.5619 -18.1991
lshoulderjoint -0.301504 -0.523862 40.9227
lhumerus 179.432 78.498 191.67
lradius 36.0948 2.3218e-013 -1.00187e-013
lwrist 8.6554e-014 -4.62201 -4.25192e-013
lhand 23.6288 4.57156 -8.53711
rfemur -19.9303 8.6305 7.37747
rtibia 54.8301 -2.14687e-014 -7.15625e-015
rfoot -181.365 -37.5767 169.298
rtoes -1.90833e-014 -2.8625e-013 -2.3059e-014
lfemur -20.8167 -2.86432 -17.6501
ltibia 5.56597e-015 3.18055e-015 8.74653e-015
lfoot 1.4339 9.02381 11.0756
ltoes -3.61788e-014 -1.93293e-013 -1.45113e-013
102
root 0.793247 3.69892 -0.424921 114.849 -71.6501 110.602
lowerback -22.994 0.680047 -9.90179
upperback -6.24716 2.67743 -0.609142
thorax 5.42653 1.04863 5.67724
lowerneck 15.7516 -3.16177 0.356678
upperneck 6.67052 -4.50908 -3.24692
head -0.592994 -2.36063 -0.846636
rshoulderjoint 0.580963 -1.0268 -40.5034
rhumerus 171.279 -56.1815 -172.621
rradius 34.5722 2.73528e-013 6.83819e-014
rwrist 1.85114e-013 -4.77184 -1.79528e-013
rhand 11.1281 4.53603 -18.1569
lshoulderjoint -0.329988 -0.572404 40.9639
lhumerus 179.985 78.559 192.34
lradius 36.089 -2.98972e-013 -1.37559e-013
lwrist 3.04731e-013 -4.61445 1.53961e-013
lhand 23.5215 4.56375 -8.61428
rfemur -19.3677 8.9359 7.39299
rtibia 54.0805 1.51076e-014 1.55052e-014
rfoot -181.376 -37.5202 169.848
rtoes 2.83069e-013 -8.90555e-014 -2.75913e-013
lfemur -21.0411 -2.83893 -17.5589
ltibia -7.51406e-014 -1.11319e-014 1.11319e-014
lfoot 1.55934 9.34094 11.0654
ltoes 2.65179e-013 -1.64469e-013 0
103
root 0.809376 3.69737 -0.42707 114.88 -71.6363 110.602
lowerback -23.1045 0.701186 -9.88358
upperback -6.25151 2.71164 -0.629939
thorax 5.47468 1.06137 5.6571
lowerneck 15.7716 -3.15921 0.315356
upperneck 6.70608 -4.51378 -3.2504
head -0.583686 -2.36494 -0.840592
rshoulderjoint 0.587873 -1.03947 -40.4925
rhumerus 171.27 -56.1551 -172.656
rradius 34.5756 -4.86625e-013 -1.27222e-014
rwrist -7.34059e-014 -4.75975 5.32991e-013
rhand 11.1237 4.57098 -18.1331
lshoulderjoint -0.331554 -0.575792 40.935
lhumerus 180.187 78.6022 192.614
lradius 36.086 1.97194e-013 8.82604e-014
lwrist -2.31743e-013 -4.62787 -1.06897e-013
lhand 23.4029 4.57682 -8.66067
rfemur -18.8469 9.31245 7.36617
rtibia 53.2464 -1.19271e-015 -5.1684e-015
rfoot -181.371 -37.523 170.334
rtoes 1.27222e-014 -5.725e-014 1.90833e-014
lfemur -21.2985 -2.81028 -17.5
ltibia -7.55382e-015 4.77083e-015 -1.27222e-014
lfoot 1.67961 9.75532 11.0789
ltoes 4.41302e-014 4.7435e-014 -3.02153e-014
104
root 0.826098 3.69592 -0.429581 114.921 -71.6301 110.66
lowerback -23.1881 0.722406 -9.85139
upperback -6.26725 2.73627 -0.611976
thorax 5.49676 1.07171 5.66792
lowerneck 15.8376 -3.14666 0.242319
upperneck 6.72622 -4.51183 -3.26014
head -0.586209 -2.36626 -0.830709
rshoulderjoint 0.570569 -1.00742 -40.528
rhumerus 171.344 -56.2831 -172.77
rradius 34.569 3.72125e-013 1.7016e-013
rwrist 1.89894e-013 -4.74575 -1.20479e-013
rhand 11.1638 4.49298 -18.0572
lshoulderjoint -0.33967 -0.591103 40.8841
lhumerus 180.523 78.6544 193.035
lradius 36.0842 -2.13097e-013 -4.77083e-014
lwrist -1.57952e-013 -4.62664 1.61941e-013
lhand 23.3003 4.57403 -8.68213
rfemur -18.3054 9.80477 7.39769
rtibia 52.294 -1.98785e-015 1.98785e-015
rfoot -181.371 -37.3502 170.66
rtoes -1.59028e-014 3.18055e-015 1.74931e-014
lfemur -21.5507 -2.76266 -17.3867
ltibia -7.15625e-015 1.59028e-015 -3.18055e-015
lfoot 1.78691 10.2327 11.0722
ltoes 1.55052e-014 1.76421e-015 -1.98785e-015
105
root 0.843216 3.69417 -0.431816 114.837 -71.6417 110.559
lowerback -23.2696 0.732423 -9.81311
upperback -6.26483 2.75001 -0.635099
thorax 5.54251 1.07506 5.62771
lowerneck 15.8434 -3.14281 0.248144
upperneck 6.75558 -4.50642 -3.2755
head -0.578069 -2.36408 -0.83703
rshoulderjoint 0.578993 -1.02371 -40.4939
rhumerus 171.279 -56.3109 -172.757
rradius 34.5675 -2.44903e-013 1.59028e-014
rwrist 3.5426e-013 -4.75363 3.35909e-013
rhand 11.1784 4.5057 -18.0315
lshoulderjoint -0.329833 -0.574008 40.883
lhumerus 180.547 78.6951 193.167
lradius 36.0795 4.45278e-014 1.43125e-013
lwrist -2.28532e-013 -4.56401 1.53152e-013
lhand 23.2453 4.51198 -8.6708
rfemur -17.79 10.299 7.39191
rtibia 51.2433 4.77083e-015 7.95139e-016
rfoot -181.457 -38.902 170.975
rtoes -1.36764e-013 -9.54166e-015 2.8625e-014
lfemur -21.8084 -2.7692 -17.3041
ltibia 4.13472e-014 2.22639e-014 -3.97569e-015
lfoot 1.8583 10.6824 11.0664
ltoes -1.39149e-013 3.2141e-014 6.83819e-014
106
root 0.861157 3.69237 -0.434433 114.694 -71.6593 110.443
lowerback -23.3394 0.735359 -9.7555
upperback -6.25426 2.74871 -0.630346
thorax 5.59354 1.07146 5.60314
lowerneck 15.85 -3.13902 0.258681
upperneck 6.76598 -4.49982 -3.32667
head -0.577499 -2.36001 -0.855291
rshoulderjoint 0.574282 -1.01691 -40.4569
rhumerus 171.23 -56.3034 -172.733
rradius 34.5716 -1.36764e-013 2.22639e-014
rwrist -3.33515e-013 -4.75392 1.64364e-013
rhand 11.1745 4.51513 -18.0393
lshoulderjoint -0.327403 -0.570055 40.871
lhumerus 180.656 78.7029 193.387
lradius 36.0727 5.08889e-014 -1.91628e-013
lwrist -1.19654e-015 -4.58761 -3.61356e-013
lhand 23.1912 4.53672 -8.60971
rfemur -17.2289 10.8946 7.43771
rtibia 50.0763 -4.77083e-015 1.59028e-015
rfoot -181.548 -40.3702 171.074
rtoes 1.52667e-013 -1.49486e-013 -1.308e-013
lfemur -22.0822 -2.77837 -17.1678
ltibia -3.73715e-014 4.77083e-015 1.19271e-014
lfoot 1.91723 11.1564 11.0847
ltoes 1.1609e-013 -1.30688e-013 -7.03698e-014
107
root 0.879676 3.69031 -0.437464 114.613 -71.6769 110.357
lowerback -23.3802 0.728511 -9.74315
upperback -6.26025 2.73957 -0.62509
thorax 5.60959 1.06588 5.60107
lowerneck 15.8665 -3.10888 0.211971
upperneck 6.80702 -4.46936 -3.31493
head -0.564664 -2.34745 -0.845529
rshoulderjoint 0.553525 -0.979847 -40.4645
rhumerus 171.21 -56.316 -172.773
rradius 34.5704 -6.96541e-013 -2.11507e-013
rwrist 3.63834e-013 -4.75154 4.74739e-013
rhand 11.1638 4.51595 -18.0785
lshoulderjoint -0.328978 -0.574094 40.815
lhumerus 180.971 78.7155 193.771
lradius 36.0704 3.65764e-013 3.18851e-013
lwrist -2.37685e-013 -4.50274 6.93912e-014
lhand 23.1618 4.45415 -8.50243
rfemur -16.6585 11.5603 7.46786
rtibia 48.8138 -1.59028e-015 -6.36111e-015
rfoot -181.611 -39.3037 170.959
rtoes -1.90833e-013 4.77083e-014 1.99182e-013
lfemur -22.3636 -2.77675 -17.0628
ltibia 3.18055e-014 2.06736e-014 -1.43125e-014
lfoot 2.04847 11.7403 11.131
ltoes -7.63333e-014 1.75154e-013 1.66979e-014
108
root 0.898708 3.68823 -0.440504 114.418 -71.703 110.194
lowerback -23.4193 0.733952 -9.6782
upperback -6.26281 2.73562 -0.630318
thorax 5.63181 1.06286 5.55898
lowerneck 15.876 -3.10134 0.191799
upperneck 6.83647 -4.46361 -3.30039
head -0.555497 -2.34619 -0.838017
rshoulderjoint 0.537406 -0.952646 -40.43
rhumerus 171.222 -56.3083 -172.833
rradius 34.5788 -6.20208e-013 -2.87045e-013
rwrist 4.62784e-013 -4.77116 2.70489e-013
rhand 11.1292 4.52539 -18.1459
lshoulderjoint -0.356403 -0.622047 40.8114
lhumerus 181.337 78.7074 194.232
lradius 36.0694 2.35361e-013 1.85267e-013
lwrist 1.17626e-013 -4.37703 3.18986e-014
lhand 23.1544 4.33331 -8.35793
rfemur -16.1041 12.279 7.54284
rtibia 47.4721 -1.98785e-014 -1.59028e-015
rfoot -181.682 -38.6751 170.64
rtoes -6.67916e-014 -1.49486e-013 5.28767e-014
lfemur -22.6566 -2.79925 -16.9138
ltibia 1.11319e-014 -3.18055e-015 5.56597e-015
lfoot 2.08804 11.9251 11.0713
ltoes -5.76476e-014 -4.2689e-014 -6.04305e-014
109
root 0.91858 3.68589 -0.443935 114.185 -71.724 110.003
lowerback -23.4375 0.723003 -9.63518
upperback -6.25444 2.71421 -0.619766
thorax 5.65605 1.05153 5.54164
lowerneck 15.8686 -3.09779 0.204651
upperneck 6.80418 -4.45564 -3.30841
head -0.565332 -2.34066 -0.842918
rshoulderjoint 0.539121 -0.957036 -40.3954
rhumerus 171.115 -56.3014 -172.782
rradius 34.5833 -3.49861e-013 -2.43312e-013
rwrist 2.5374e-013 -4.78973 1.67564e-014
rhand 11.0966 4.49896 -18.2104
lshoulderjoint -0.337325 -0.588992 40.8012
lhumerus 181.219 78.7115 194.211
lradius 36.0702 1.78111e-013 1.74931e-013
lwrist 1.25984e-013 -4.28652 8.45211e-014
lhand 23.1411 4.24244 -8.2112
rfemur -15.6192 13.0034 7.66362
rtibia 46.0875 -1.35174e-014 -6.36111e-015
rfoot -181.666 -36.0918 170.137
rtoes 3.49861e-014 -9.22361e-014 -4.37326e-014
lfemur -22.9795 -2.8257 -16.7483
ltibia 1.59028e-015 0 1.27222e-014
lfoot 2.23256 12.2823 11.1018
ltoes -3.49861e-014 -1.33583e-013 -6.12257e-014
